# xmcd
#
# Track frame offsets:
# 150
# 16707
# 40093
# 55552
# 74372
# 90607
# 109838
# 126845
# 144958
# 161442
# 178255
# 202671
# 220163
# 236520
# 252751
# 270779
# 286515
# 299646
# 314333
# 328572
#
# Disc length: 4568 seconds
#
#
# Revision: 1
# Processed by: cddbd v1.5.2PL0 Copyright (c) Steve Scherf et al.
# Submitted via: FreeRIP 2.00 
#
DISCID=0f11d614
DTITLE=Nu Urban Traxx Volume 212 US - Nu Urban Traxx Volume 212 US
DYEAR=2015
DGENRE=blues
TTITLE0=Rihanna\n - B Better Have My Money\n
TTITLE1=Mike Will Made-It ft. Swae Lee\n - Drinks On Us\n
TTITLE2=Rae Sremmurd\n - This Could Be Us\n
TTITLE3=Elijah Blake\n - I Just Wanna...\n
TTITLE4=Charles Hamilton ft. Rita Ora\n - New York Raining\n
TTITLE5=Raheem DeVaughn\n - Temperature's Rising\n
TTITLE6=Curtis Fields\n - Fool For You\n
TTITLE7=J. Cole\n - Wet Dreamz\n
TTITLE8=Janelle Monae ft. Jidenna\n - Yoga\n
TTITLE9=Jazmine Sullivan\n - Let It Burn\n
TTITLE10=The Game ft. Meek Mill\n - The Soundtrack\n
TTITLE11=Baby Blue ft. Chance The Rapper\n - Action Bronson\n
TTITLE12=Ty Dolla $ign ft. Charli XCX and Tinashe\n - Drop That Kitty\n
TTITLE13=Dillon Francis and DJ Snake ft. Rae Sremmurd\n - Get Low\n [Remix\n]
TTITLE14=K. Michelle\n - Hard To Do\n
TTITLE15=Kenny Lattimore\n - Love Me Back\n
TTITLE16=Chinx ft. Jadakiss\n - Trap House\n
TTITLE17=Tamia\n - Sandwich And A Soda\n
TTITLE18=LeToya Luckett ft. T.I.\n - Don't Make Me Wait\n
TTITLE19=Kat Deluna ft. Trey Songz\n - Bum Bum\n
EXTD=
EXTT0=
EXTT1=
EXTT2=
EXTT3=
EXTT4=
EXTT5=
EXTT6=
EXTT7=
EXTT8=
EXTT9=
EXTT10=
EXTT11=
EXTT12=
EXTT13=
EXTT14=
EXTT15=
EXTT16=
EXTT17=
EXTT18=
EXTT19=
PLAYORDER=
